<svg id="Capa_1" enable-background="new 0 0 512 512" height="512" viewBox="0 0 512 512" width="512" xmlns="http://www.w3.org/2000/svg"><path d="" style="fill:none;stroke:#00f;stroke-width:20;stroke-linecap:round;stroke-linejoin:round;stroke-miterlimit:10"/><path d="m80.302 15.62c-2.737-.932-5.671-1.44-8.723-1.444-7.276-.011-13.887 2.839-18.771 7.488-1.953 1.859-5.051 1.82-7.017-.026-4.929-4.631-11.589-7.444-18.907-7.363-16.963.185-29.314 15.673-26.478 32.398.986 5.814 3.986 10.032 10.529 16.547 6.847 6.817 28.377 27.403 35.917 34.603 1.477 1.411 3.798 1.404 5.268-.014 7.772-7.493 30.445-29.37 35.949-34.899 6.673-6.702 10.626-12.751 10.64-21.522.019-11.953-7.686-22.117-18.407-25.768" fill="#fc6b55"/><path d="m80.302 15.62c-2.737-.932-5.671-1.44-8.723-1.444-.562-.001-1.12.016-1.674.049 7.051 4.919 11.661 13.092 11.647 22.34-.013 8.771-3.967 14.82-10.64 21.522-4.842 4.863-22.967 22.375-32.549 31.62 3.46 3.312 6.474 6.192 8.487 8.114 1.478 1.411 3.803 1.405 5.274-.013 7.775-7.495 30.443-29.368 35.947-34.896 6.673-6.702 10.626-12.751 10.64-21.522.017-11.955-7.688-22.119-18.409-25.77z" fill="#fc534e"/><path d="m512 314.545c0-13.559-6.647-25.558-16.855-32.937-1.591-1.15-1.702-3.475-.241-4.786 8.938-8.025 14.562-19.668 14.562-32.626 0-23.757-18.901-43.086-42.484-43.803v-.034l-129.654-.132c2.287-17.701 4.965-34.396 6.498-51.195 2.531-27.743 1.58-55.183-13.64-79.869-16.664-27.028-42.705-36.394-70.838-26.412-4.963 1.761-7.035 3.886-6.416 9.581 2.415 22.256 4.649 44.548 6.12 66.881.415 6.299-.517 13.547-3.355 19.062-19.514 37.929-39.608 75.559-59.34 113.376-3.936 7.543-6.966 15.49-9.06 23.675-1.458 5.698-6.608 9.67-12.49 9.67h-52.67v192.019h298.581c22.438 0 41.531-18.354 41.442-40.792-.023-5.866-1.296-11.435-3.558-16.464-.827-1.839.264-3.961 2.247-4.325 18.913-3.471 33.247-20.03 33.247-39.946 0-7.443-2.008-14.414-5.504-20.411-.893-1.533-.341-3.533 1.239-4.34 13.158-6.723 22.169-20.402 22.169-36.192z" fill="#d38678"/><path d="m512 314.545c0-13.559-6.647-25.558-16.855-32.937-1.591-1.15-1.702-3.475-.241-4.786 8.938-8.025 14.562-19.668 14.562-32.626 0-23.757-18.901-43.086-42.484-43.803v-.034l-15.286-.016c5.151 7.183 8.188 15.984 8.188 25.499 0 9.12-2.786 17.588-7.552 24.602-4.131 6.079-3.976 14.159.722 19.811 5.847 7.034 9.364 16.072 9.364 25.935 0 12.568-5.709 23.799-14.675 31.25-5.052 4.198-7.15 11.079-5.149 17.335 1.246 3.896 1.919 8.049 1.919 12.359 0 16.184-9.465 30.151-23.161 36.679-6.595 3.144-10.578 10.173-9.351 17.375.37 2.172.567 4.403.576 6.679.09 22.635-18.807 40.792-41.442 40.792h-248.998v18.354h298.581c22.438 0 41.531-18.353 41.442-40.791-.023-5.866-1.296-11.436-3.558-16.464-.827-1.839.264-3.961 2.247-4.325 18.913-3.471 33.247-20.03 33.247-39.946 0-7.443-2.008-14.414-5.504-20.411-.893-1.533-.341-3.533 1.239-4.34 13.158-6.722 22.169-20.401 22.169-36.191z" fill="#c86e57"/><path d="m143.671 497.825h-112.934c-16.976 0-30.737-13.762-30.737-30.737v-169.398c0-16.975 13.761-30.737 30.737-30.737h112.935c3.314 0 6 2.686 6 6v218.871c-.001 3.314-2.687 6.001-6.001 6.001z" fill="#586b76"/><path d="m143.671 266.953h-32.473v148.805c0 22.62-18.337 40.956-40.956 40.956h-70.242v10.373c0 16.975 13.761 30.737 30.737 30.737h112.935c3.314 0 6-2.686 6-6v-218.871c-.001-3.313-2.687-6-6.001-6z" fill="#465961"/><circle cx="100.488" cy="433.695" fill="#e5ecf1" r="19.971"/><path d="m107.89 415.158c.909 2.284 1.424 4.768 1.424 7.375 0 11.03-8.941 19.971-19.971 19.971-2.618 0-5.111-.518-7.403-1.434 2.936 7.375 10.125 12.596 18.547 12.596 11.03 0 19.971-8.941 19.971-19.971.001-8.411-5.206-15.595-12.568-18.537z" fill="#d6e4ea"/><path d="" style="fill:none;stroke:#00f;stroke-width:20;stroke-linecap:round;stroke-linejoin:round;stroke-miterlimit:10"/><path d="m470.303 52.804c-2.737-.932-5.671-1.44-8.723-1.444-7.276-.011-13.887 2.839-18.771 7.488-1.953 1.859-5.051 1.82-7.017-.026-4.93-4.631-11.589-7.444-18.907-7.363-16.963.187-29.314 15.675-26.477 32.399.986 5.814 3.986 10.032 10.529 16.547 6.847 6.817 28.377 27.403 35.917 34.603 1.477 1.411 3.798 1.404 5.268-.014 7.772-7.493 30.445-29.37 35.949-34.899 6.673-6.702 10.626-12.751 10.64-21.522.018-11.955-7.687-22.118-18.408-25.769" fill="#fdcbc6"/><path d="m470.303 52.804c-2.737-.932-5.671-1.44-8.723-1.444-.562-.001-1.12.016-1.674.049 7.051 4.919 11.661 13.092 11.647 22.34-.013 8.771-3.967 14.82-10.64 21.522-4.842 4.863-22.967 22.375-32.549 31.62 3.46 3.312 6.474 6.192 8.487 8.114 1.478 1.411 3.803 1.405 5.274-.013 7.775-7.495 30.443-29.368 35.947-34.896 6.673-6.702 10.626-12.751 10.64-21.522.017-11.956-7.688-22.119-18.409-25.77z" fill="#fbbeb4"/><path d="" style="fill:none;stroke:#00f;stroke-width:20;stroke-linecap:round;stroke-linejoin:round;stroke-miterlimit:10"/><path d="m187.275 120.423c-2.737-.932-5.671-1.44-8.723-1.444-7.276-.011-13.887 2.839-18.771 7.488-1.953 1.859-5.051 1.82-7.017-.026-4.929-4.631-11.589-7.444-18.907-7.363-16.963.187-29.314 15.675-26.477 32.399.986 5.814 3.986 10.032 10.529 16.547 6.847 6.817 28.377 27.403 35.917 34.603 1.477 1.411 3.798 1.404 5.268-.014 7.772-7.493 30.445-29.37 35.949-34.899 6.673-6.702 10.626-12.751 10.64-21.522.018-11.955-7.687-22.118-18.408-25.769" fill="#fdcbc6"/><path d="m187.275 120.423c-2.737-.932-5.671-1.44-8.723-1.444-.562-.001-1.12.016-1.674.049 7.051 4.919 11.661 13.092 11.647 22.34-.013 8.771-3.967 14.82-10.64 21.522-4.842 4.863-22.967 22.375-32.549 31.62 3.46 3.312 6.474 6.192 8.487 8.114 1.478 1.411 3.803 1.405 5.274-.013 7.775-7.495 30.443-29.368 35.947-34.896 6.673-6.702 10.626-12.751 10.64-21.522.017-11.956-7.688-22.119-18.409-25.77z" fill="#fbbeb4"/></svg>